Coordinates
version=1
nRows=17
nColumns=36
inDegrees=yes

Units are S.I. units (second, meters, Newtons, ...)
If the header above contains a line with 'inDegrees', this indicates whether rotational values are in degrees (yes) or radians (no).

endheader
time	pelvis_tilt	pelvis_list	pelvis_rotation	pelvis_tx	pelvis_ty	pelvis_tz	hip_flexion_r	hip_adduction_r	hip_rotation_r	knee_angle_r	knee_angle_r_beta	ankle_angle_r	subtalar_angle_r	mtp_angle_r	hip_flexion_l	hip_adduction_l	hip_rotation_l	knee_angle_l	knee_angle_l_beta	ankle_angle_l	subtalar_angle_l	mtp_angle_l	lumbar_extension	lumbar_bending	lumbar_rotation	arm_flex_r	arm_add_r	arm_rot_r	elbow_flex_r	pro_sup_r	arm_flex_l	arm_add_l	arm_rot_l	elbow_flex_l	pro_sup_l
      0.70000000	      7.07276346	      1.32339322	     -5.01908983	      0.71006619	      1.04011140	     -0.18623896	    -12.93989850	     -3.54136734	     -5.27964616	     42.56000192	      0.74281216	     -4.14651443	     10.54857345	     -6.88822318	      7.99673757	      5.67181088	      1.44457160	      3.57046055	      0.06231629	     -8.92028208	     -5.36049470	     -6.88822318	     -8.28356173	     -3.43807576	      2.08757426	      3.10315553	    -11.09914655	      3.98960836	     47.53239223	    103.73298190	    -18.92316313	     -6.63084585	     10.72308232	     27.82618969	     93.57320343
      0.71000000	      7.11333984	      1.78005119	     -4.60704622	      0.72251120	      1.04172168	     -0.18771181	    -10.82610926	     -4.37013031	     -5.75497517	     46.64986380	      0.81419372	     -7.11554705	      8.99786546	     -6.89656833	      7.31190126	      6.36250503	      2.01824046	      3.72424444	      0.06500033	     -8.60354631	     -5.59065385	     -6.89656833	     -8.41506657	     -3.98656775	      1.32938612	      2.70153473	    -10.76213239	      3.62135621	     46.99625340	    103.69953376	    -18.09985327	     -7.06287371	     10.65152329	     28.48411730	     93.67459100
      0.72000000	      7.14326231	      2.19691413	     -4.26151947	      0.73466193	      1.04331173	     -0.18905639	     -8.63037692	     -5.11266047	     -5.98015311	     50.62600156	      0.88359041	     -9.97173711	      7.39073339	     -6.90430480	      6.52773372	      7.00343074	      2.49163591	      3.68234028	      0.06426896	     -8.09676222	     -5.66943088	     -6.90430480	     -8.58614731	     -4.46880853	      0.62018090	      2.30806007	    -10.42944806	      3.31972128	     46.51951641	    103.67168416	    -17.20565245	     -7.52863107	     10.55546488	     29.16520839	     93.76227001
      0.73000000	      6.97619983	      2.37276104	     -3.90734408	      0.74646726	      1.04472310	     -0.19023406	     -6.19090926	     -5.41899325	     -5.99148011	     54.35685033	      0.94870601	    -13.27375179	      4.54341383	     -6.92040831	      5.96518613	      7.33101044	      2.82783688	      3.66030972	      0.06388446	     -7.70293674	     -5.68338235	     -6.92040831	     -8.56802211	     -4.65660738	     -0.02177819	      1.89074307	    -10.09954216	      2.82562822	     45.93665115	    103.79476213	    -16.33924629	     -7.96125820	     10.37408720	     30.02529187	     93.96297793
      0.74000000	      6.93870242	      2.58362491	     -3.63651886	      0.75823848	      1.04627710	     -0.19132080	     -3.91165737	     -5.80144369	     -5.92465921	     57.86791897	      1.00998572	    -15.56970323	      2.77268276	     -6.93316591	      5.09850595	      7.68431706	      3.04077967	      3.32817441	      0.05808760	     -7.08834880	     -5.32671005	     -6.93316591	     -8.69213437	     -4.88384731	     -0.57083298	      1.47439144	     -9.89161444	      2.56371307	     45.41814664	    103.84992820	    -15.35708649	     -8.42265425	     10.27995044	     30.72541804	     94.10030138
      0.75000000	      6.85827964	      2.67914431	     -3.41877951	      0.76988171	      1.04784073	     -0.19227766	     -1.62672089	     -5.95528629	     -5.70303697	     61.03870371	      1.06532635	    -17.38674179	      0.81559311	     -6.94551652	      4.24181116	      7.88564019	      3.12385112	      2.94158929	      0.05134042	     -6.40857117	     -4.75203217	     -6.94551652	     -8.76109615	     -4.97275093	     -1.05099194	      1.05692542	     -9.65043406	      2.31012493	     44.82436041	    103.86485645	    -14.33674314	     -8.85279590	     10.26481248	     31.42671453	     94.23184724
      0.76000000	      6.89946275	      2.69338894	     -3.20618237	      0.78146141	      1.04959971	     -0.19318549	      0.41712344	     -5.97310686	     -5.45581363	     63.81252175	      1.11373861	    -18.10786019	     -0.50126521	     -6.95199206	      3.14851387	      7.99240692	      3.28097674	      2.36728833	      0.04131698	     -5.69009357	     -4.25679779	     -6.95199206	     -8.98498128	     -4.95867151	     -1.51558996	      0.66191138	     -9.47720527	      2.17871774	     44.26996300	    103.79315338	    -13.21182194	     -9.25255412	     10.25755394	     32.00042828	     94.28908215
      0.77000000	      6.80036992	      2.54950013	     -2.98514138	      0.79297909	      1.05129555	     -0.19384474	      2.52625193	     -5.67039548	     -5.22285363	     66.14746193	      1.15449100	    -18.80800161	     -2.88352909	     -7.00464739	      2.40864771	      7.82768498	      2.32250782	      2.17641494	      0.03798561	     -4.09804024	     -1.79279485	     -7.00464739	     -9.02909229	     -4.76119518	     -1.82022813	      0.19161038	     -9.25356982	      1.70581212	     43.58523925	    103.84696050	    -12.01171639	     -9.75302925	     10.67193377	     32.53725698	     94.60048336
      0.78000000	      6.73446116	      2.40326232	     -2.70647789	      0.80439089	      1.05297585	     -0.19463134	      4.48945262	     -5.35479119	     -5.05203405	     68.12862261	      1.18906878	    -18.16450996	     -4.42010527	     -7.01582413	      1.49363517	      7.72125166	      2.48296384	      1.73756955	      0.03032631	     -3.46037580	     -1.23717761	     -7.01582413	     -9.11963062	     -4.54964763	     -2.26450551	     -0.17908285	     -9.10366304	      1.55237605	     42.80810964	    103.70138129	    -10.85868618	    -10.17737610	     10.73797631	     33.18015227	     94.64961372
      0.79000000	      6.82896357	      2.14167794	     -2.38106491	      0.81563777	      1.05485810	     -0.19558542	      6.15829722	     -4.91719274	     -4.98095185	     69.63443723	      1.21535020	    -17.14668552	     -5.51391579	     -7.01912940	      0.43968521	      7.49962703	      2.70898847	      1.35984966	      0.02373385	     -2.96425671	     -0.88366872	     -7.01912940	     -9.43740721	     -4.15695798	     -2.74749824	     -0.54834755	     -9.10251956	      1.51215183	     42.26878331	    103.58489630	     -9.59237460	    -10.47839846	     10.69464459	     33.70636438	     94.65787943
      0.80000000	      6.76449364	      1.95408006	     -1.99716487	      0.82699878	      1.05647302	     -0.19620889	      7.85404156	     -4.45111010	     -4.95410129	     70.73815803	      1.23461376	    -15.28394414	     -7.16369438	     -7.02342586	     -0.40947291	      7.31321271	      3.05341615	      1.05989353	      0.01849863	     -2.19595888	     -0.34313796	     -7.02342586	     -9.48832192	     -3.93299277	     -3.11702222	     -1.04012400	     -8.98159938	      1.45246979	     41.44385269	    103.44374563	     -8.31866956	    -10.95683289	     10.69704926	     34.34744766	     94.68338854
      0.81000000	      6.71736996	      1.70733678	     -1.53900842	      0.83817823	      1.05797612	     -0.19711686	      9.45122156	     -3.99956711	     -5.10170935	     71.45066712	      1.24704939	    -13.45973356	     -8.48395605	     -7.02776759	     -1.15163355	      7.06785743	      3.27265317	      0.95570112	      0.01668013	     -1.44154470	      0.20209105	     -7.02776759	     -9.59729715	     -3.56730910	     -3.61423138	     -1.45009714	     -8.95133174	      1.38208692	     40.67691667	    103.29445778	     -7.02870387	    -11.33844836	     10.73139707	     35.00604125	     94.70401221
      0.82000000	      6.73530502	      1.48840666	     -1.08100070	      0.84941949	      1.05943709	     -0.19792362	     10.87551391	     -3.59186130	     -5.24952936	     71.79159663	      1.25299974	    -11.23423248	     -9.13436238	     -7.05897233	     -1.80842482	      6.78168504	      2.30288741	      1.10225609	      0.01923800	      0.41623134	      3.04756463	     -7.05897233	     -9.74054629	     -3.25162281	     -4.20523695	     -1.73247371	     -8.89822989	      1.49430301	     39.68851369	    103.11873010	     -5.78655048	    -11.85056987	     11.10689988	     35.69301187	     94.74064071
      0.83000000	      6.71778339	      1.23057814	     -0.56288562	      0.86051210	      1.06067014	     -0.19887576	     12.24150405	     -3.14459076	     -5.48011581	     71.73958665	      1.25209199	     -9.49125448	    -10.26339223	     -7.06292515	     -2.50276005	      6.52383668	      2.66024191	      1.09593291	      0.01912764	      0.96884274	      3.27957157	     -7.06292515	     -9.86660508	     -2.86328339	     -4.63904301	     -2.25847185	     -8.93469962	      1.45645130	     39.08662229	    103.00227129	     -4.40996120	    -12.15730417	     10.95486801	     36.35662091	     94.74223276
      0.84000000	      6.69879126	      1.01060712	     -0.00841603	      0.87146268	      1.06173884	     -0.19982328	     13.51902155	     -2.76040986	     -5.73118308	     71.33301153	      1.24499592	     -7.72958663	    -11.18790928	     -7.06664873	     -3.13641840	      6.29902655	      3.00713481	      1.16902141	      0.02040327	      1.61756932	      3.49312480	     -7.06664873	    -10.01301896	     -2.52435252	     -5.13420262	     -2.73339079	     -8.94620023	      1.38675320	     38.44372607	    102.89081285	     -3.04533311	    -12.47776587	     10.80825945	     37.06118043	     94.75211863
      0.85000000	      6.69240014	      0.80504582	      0.56518412	      0.88241924	      1.06263049	     -0.20074583	     14.67228962	     -2.40248699	     -5.97334986	     70.60545799	      1.23229771	     -6.02462895	    -11.92283775	     -7.07027487	     -3.74038573	      6.08397034	      3.35148511	      1.31030845	      0.02286920	      2.29923132	      3.69982081	     -7.07027487	    -10.14069245	     -2.19992229	     -5.63732915	     -3.19450316	     -8.93144055	      1.28269178	     37.77020131	    102.78994620	     -1.67787124	    -12.79709943	     10.63280333	     37.80944056	     94.76899641
      0.86000000	      6.81459021	      0.61852444	      1.18432703	      0.89332592	      1.06350440	     -0.20160413	     15.56794842	     -2.07713561	     -6.21313071	     69.55344889	      1.21393669	     -4.11936465	    -12.11531535	     -7.07858154	     -4.46194173	      5.86076094	      3.78711488	      1.50823776	      0.02632371	      3.36788956	      4.13700831	     -7.07858154	    -10.43316720	     -1.88362609	     -6.37881591	     -3.43396778	     -8.77932974	      0.95570253	     36.92558674	    102.74616431	     -0.45190452	    -13.17534186	     10.32530784	     38.67768692	     94.80773876
